# 3ds Max Wavefront OBJ Exporter v0.97b - (c)2007 guruware
# File Created: 28.08.2018 21:48:06

mtllib Chain.mtl

#
# object Torus003
#

v  0.0000 0.0000 -0.0000
v  -0.1596 0.0661 -0.0000
v  -0.1596 0.2700 -0.5696
v  0.0000 0.2165 -0.6084
v  -0.2258 0.2258 -0.0000
v  -0.2258 0.3991 -0.4757
v  -0.1596 0.3854 -0.0000
v  -0.1596 0.5282 -0.3819
v  0.0000 0.4515 -0.0000
v  0.0000 0.5817 -0.3430
v  0.1596 0.3854 -0.0000
v  0.1596 0.5282 -0.3819
v  0.2258 0.2258 -0.0000
v  0.2258 0.3991 -0.4757
v  0.1596 0.0661 -0.0000
v  0.1596 0.2700 -0.5696
v  -0.1596 0.8939 -0.7539
v  0.0000 0.8735 -0.8135
v  -0.2258 0.9432 -0.6099
v  -0.1596 0.9926 -0.4659
v  0.0000 1.0130 -0.4062
v  0.1596 0.9926 -0.4659
v  0.2258 0.9432 -0.6099
v  0.1596 0.8939 -0.7539
v  -0.1596 1.6652 -0.7084
v  -0.0000 1.6856 -0.7644
v  -0.2258 1.6159 -0.5731
v  -0.1596 1.5665 -0.4378
v  0.0000 1.5461 -0.3817
v  0.1596 1.5665 -0.4378
v  0.2258 1.6159 -0.5731
v  0.1596 1.6652 -0.7084
v  -0.1596 2.2247 -0.4842
v  -0.0000 2.2782 -0.5173
v  -0.2258 2.0955 -0.4045
v  -0.1596 1.9664 -0.3247
v  -0.0000 1.9129 -0.2917
v  0.1596 1.9664 -0.3247
v  0.2258 2.0955 -0.4045
v  0.1596 2.2247 -0.4842
v  -0.1596 2.4179 -0.0000
v  -0.0000 2.4840 -0.0000
v  -0.2258 2.2582 -0.0000
v  -0.1596 2.0986 -0.0000
v  -0.0000 2.0325 -0.0000
v  0.1596 2.0986 -0.0000
v  0.2258 2.2582 -0.0000
v  0.1596 2.4179 -0.0000
v  0.0000 0.2165 0.6084
v  -0.1596 0.2700 0.5696
v  -0.2258 0.3991 0.4757
v  -0.1596 0.5282 0.3819
v  0.0000 0.5817 0.3430
v  0.1596 0.5282 0.3819
v  0.2258 0.3991 0.4757
v  0.1596 0.2700 0.5696
v  0.0000 0.8735 0.8135
v  -0.1596 0.8939 0.7539
v  -0.2258 0.9432 0.6099
v  -0.1596 0.9926 0.4659
v  0.0000 1.0130 0.4062
v  0.1596 0.9926 0.4659
v  0.2258 0.9432 0.6099
v  0.1596 0.8939 0.7539
v  -0.0000 1.6856 0.7644
v  -0.1596 1.6652 0.7084
v  -0.2258 1.6159 0.5731
v  -0.1596 1.5665 0.4378
v  0.0000 1.5461 0.3817
v  0.1596 1.5665 0.4378
v  0.2258 1.6159 0.5731
v  0.1596 1.6652 0.7084
v  -0.0000 2.2782 0.5173
v  -0.1596 2.2247 0.4842
v  -0.2258 2.0955 0.4045
v  -0.1596 1.9664 0.3247
v  -0.0000 1.9129 0.2917
v  0.1596 1.9664 0.3247
v  0.2258 2.0955 0.4045
v  0.1596 2.2247 0.4842
v  0.0000 1.5285 -0.0000
v  0.0000 1.5946 0.1596
v  -0.5696 1.7984 0.1596
v  -0.6084 1.7449 0.0000
v  0.0000 1.7542 0.2258
v  -0.4757 1.9276 0.2258
v  0.0000 1.9139 0.1596
v  -0.3819 2.0567 0.1596
v  0.0000 1.9800 -0.0000
v  -0.3430 2.1102 0.0000
v  0.0000 1.9139 -0.1596
v  -0.3819 2.0567 -0.1596
v  0.0000 1.7542 -0.2258
v  -0.4757 1.9276 -0.2258
v  0.0000 1.5946 -0.1596
v  -0.5696 1.7984 -0.1596
v  -0.7539 2.4224 0.1596
v  -0.8135 2.4020 0.0000
v  -0.6099 2.4717 0.2258
v  -0.4659 2.5211 0.1596
v  -0.4062 2.5415 0.0000
v  -0.4659 2.5211 -0.1596
v  -0.6099 2.4717 -0.2258
v  -0.7539 2.4224 -0.1596
v  -0.7084 3.1937 0.1596
v  -0.7644 3.2141 0.0000
v  -0.5731 3.1443 0.2258
v  -0.4378 3.0950 0.1596
v  -0.3817 3.0746 0.0000
v  -0.4378 3.0950 -0.1596
v  -0.5731 3.1443 -0.2258
v  -0.7084 3.1937 -0.1596
v  -0.4842 3.7531 0.1596
v  -0.5173 3.8066 0.0000
v  -0.4045 3.6240 0.2258
v  -0.3247 3.4949 0.1596
v  -0.2917 3.4414 0.0000
v  -0.3247 3.4949 -0.1596
v  -0.4045 3.6240 -0.2258
v  -0.4842 3.7531 -0.1596
v  0.0000 3.9463 0.1596
v  0.0000 4.0125 0.0000
v  0.0000 3.7867 0.2258
v  0.0000 3.6271 0.1596
v  0.0000 3.5609 0.0000
v  0.0000 3.6271 -0.1596
v  0.0000 3.7867 -0.2258
v  0.0000 3.9463 -0.1596
v  0.6084 1.7449 -0.0000
v  0.5696 1.7984 0.1596
v  0.4757 1.9276 0.2258
v  0.3819 2.0567 0.1596
v  0.3430 2.1102 -0.0000
v  0.3819 2.0567 -0.1596
v  0.4757 1.9276 -0.2258
v  0.5696 1.7984 -0.1596
v  0.8135 2.4020 -0.0000
v  0.7539 2.4224 0.1596
v  0.6099 2.4717 0.2258
v  0.4659 2.5211 0.1596
v  0.4062 2.5415 -0.0000
v  0.4659 2.5211 -0.1596
v  0.6099 2.4717 -0.2258
v  0.7539 2.4224 -0.1596
v  0.7644 3.2141 -0.0000
v  0.7084 3.1937 0.1596
v  0.5731 3.1443 0.2258
v  0.4378 3.0950 0.1596
v  0.3817 3.0746 -0.0000
v  0.4378 3.0950 -0.1596
v  0.5731 3.1443 -0.2258
v  0.7084 3.1937 -0.1596
v  0.5173 3.8066 -0.0000
v  0.4842 3.7531 0.1596
v  0.4045 3.6240 0.2258
v  0.3247 3.4949 0.1596
v  0.2917 3.4414 -0.0000
v  0.3247 3.4949 -0.1596
v  0.4045 3.6240 -0.2258
v  0.4842 3.7531 -0.1596
# 160 vertices

vn -0.0005 -1.0000 -0.0000
vn -0.6685 -0.7437 -0.0000
vn -0.6526 -0.5133 -0.5574
vn -0.0022 -0.7028 -0.7114
vn -0.9239 -0.3827 -0.0000
vn -0.9169 -0.2370 -0.3210
vn -0.9247 0.3806 0.0000
vn -0.9239 0.3827 0.0000
vn -0.8212 0.2183 0.5272
vn -0.9249 0.2611 0.2764
vn -0.3854 0.9227 0.0000
vn 0.0017 1.0000 -0.0000
vn 0.0015 0.9355 0.3532
vn -0.3707 0.8699 0.3254
vn 0.3827 0.9239 -0.0000
vn 0.3685 0.8696 0.3287
vn 0.9246 0.3810 0.0000
vn 0.9239 0.3827 0.0000
vn 0.9213 0.2708 0.2789
vn 0.8272 0.2326 0.5115
vn 0.9244 -0.3815 -0.0000
vn 0.6684 -0.7438 -0.0000
vn 0.6527 -0.5177 -0.5531
vn 0.9207 -0.2422 -0.3061
vn -0.6675 -0.0875 -0.7395
vn -0.0022 -0.1261 -0.9920
vn -0.9106 -0.0364 -0.4116
vn -0.6974 0.0512 0.7149
vn -0.9134 0.0461 0.4044
vn 0.0128 0.1581 0.9873
vn 0.0037 0.0489 0.9988
vn 0.6951 0.0383 0.7178
vn 0.9090 0.0358 0.4152
vn 0.6662 -0.0797 -0.7415
vn 0.9118 -0.0278 -0.4098
vn -0.6578 0.1608 -0.7359
vn 0.0023 0.2269 -0.9739
vn -0.9068 0.0773 -0.4143
vn -0.6864 -0.1110 0.7187
vn -0.9028 -0.0785 0.4228
vn -0.0051 -0.1454 0.9894
vn 0.6880 -0.1215 0.7155
vn 0.9075 -0.0858 0.4113
vn 0.6587 0.1666 -0.7337
vn 0.9048 0.0847 -0.4173
vn -0.6444 0.5392 -0.5422
vn 0.0019 0.7235 -0.6904
vn -0.9113 0.2656 -0.3147
vn -0.8104 -0.2765 0.5165
vn -0.9132 -0.2944 0.2817
vn -0.0130 -0.2514 0.9678
vn 0.8042 -0.2626 0.5332
vn 0.9165 -0.2849 0.2808
vn 0.6442 0.5350 -0.5465
vn 0.9072 0.2612 -0.3297
vn -0.6645 0.7473 0.0000
vn 0.0002 1.0000 0.0000
vn -0.9241 0.3821 0.0000
vn -0.9242 -0.3818 0.0000
vn -0.9239 -0.3827 0.0000
vn -0.3609 -0.8632 0.3531
vn -0.0007 -0.9256 0.3786
vn -0.0008 -1.0000 0.0000
vn -0.3827 -0.9239 0.0000
vn 0.3621 -0.8633 0.3515
vn 0.3840 -0.9233 0.0000
vn 0.9243 -0.3817 -0.0000
vn 0.9239 -0.3827 -0.0000
vn 0.6646 0.7472 0.0000
vn 0.9239 0.3827 -0.0000
vn -0.0022 -0.7028 0.7114
vn -0.6526 -0.5133 0.5574
vn -0.9169 -0.2370 0.3210
vn -0.9249 0.2611 -0.2764
vn -0.8212 0.2183 -0.5272
vn -0.3707 0.8699 -0.3254
vn 0.0015 0.9355 -0.3532
vn 0.3685 0.8696 -0.3287
vn 0.8272 0.2326 -0.5115
vn 0.9213 0.2708 -0.2789
vn 0.9207 -0.2422 0.3061
vn 0.6527 -0.5177 0.5531
vn -0.0022 -0.1261 0.9920
vn -0.6675 -0.0875 0.7395
vn -0.9106 -0.0364 0.4116
vn -0.9134 0.0461 -0.4044
vn -0.6974 0.0512 -0.7149
vn 0.0037 0.0489 -0.9988
vn 0.0128 0.1581 -0.9873
vn 0.6951 0.0383 -0.7178
vn 0.9090 0.0358 -0.4152
vn 0.9118 -0.0278 0.4098
vn 0.6662 -0.0797 0.7415
vn 0.0023 0.2269 0.9739
vn -0.6578 0.1608 0.7359
vn -0.9068 0.0773 0.4143
vn -0.9028 -0.0785 -0.4228
vn -0.6864 -0.1110 -0.7187
vn -0.0051 -0.1454 -0.9894
vn 0.6880 -0.1215 -0.7155
vn 0.9075 -0.0858 -0.4113
vn 0.9048 0.0847 0.4173
vn 0.6587 0.1666 0.7337
vn 0.0019 0.7235 0.6904
vn -0.6444 0.5392 0.5422
vn -0.9113 0.2656 0.3147
vn -0.9132 -0.2944 -0.2817
vn -0.8104 -0.2765 -0.5165
vn -0.0130 -0.2514 -0.9678
vn 0.8042 -0.2626 -0.5332
vn 0.9165 -0.2849 -0.2808
vn 0.9072 0.2612 0.3297
vn 0.6442 0.5350 0.5465
vn -0.3609 -0.8632 -0.3531
vn -0.0007 -0.9256 -0.3786
vn 0.3621 -0.8633 -0.3515
vn -0.0000 -1.0000 0.0005
vn 0.0000 -0.7437 0.6685
vn -0.5574 -0.5133 0.6526
vn -0.7114 -0.7028 0.0022
vn 0.0000 -0.3827 0.9239
vn -0.3210 -0.2370 0.9169
vn 0.0000 0.3806 0.9247
vn 0.0000 0.3827 0.9239
vn 0.5272 0.2183 0.8212
vn 0.2764 0.2611 0.9249
vn 0.0000 0.9227 0.3854
vn -0.0000 1.0000 -0.0017
vn 0.3532 0.9355 -0.0015
vn 0.3254 0.8699 0.3707
vn -0.0000 0.9239 -0.3827
vn 0.3287 0.8696 -0.3685
vn -0.0000 0.3810 -0.9246
vn -0.0000 0.3827 -0.9239
vn 0.2789 0.2708 -0.9213
vn 0.5115 0.2326 -0.8272
vn -0.0000 -0.3815 -0.9244
vn -0.0000 -0.7438 -0.6684
vn -0.5531 -0.5177 -0.6527
vn -0.3061 -0.2422 -0.9207
vn -0.7395 -0.0875 0.6675
vn -0.9920 -0.1261 0.0022
vn -0.4116 -0.0364 0.9106
vn 0.7149 0.0512 0.6974
vn 0.4044 0.0461 0.9134
vn 0.9873 0.1581 -0.0128
vn 0.9988 0.0489 -0.0037
vn 0.7178 0.0383 -0.6951
vn 0.4152 0.0358 -0.9090
vn -0.7415 -0.0797 -0.6662
vn -0.4098 -0.0278 -0.9118
vn -0.7358 0.1608 0.6578
vn -0.9739 0.2269 -0.0023
vn -0.4143 0.0773 0.9068
vn 0.7187 -0.1110 0.6864
vn 0.4228 -0.0785 0.9028
vn 0.9894 -0.1454 0.0051
vn 0.7155 -0.1215 -0.6880
vn 0.4113 -0.0858 -0.9075
vn -0.7337 0.1666 -0.6587
vn -0.4173 0.0847 -0.9048
vn -0.5422 0.5392 0.6444
vn -0.6904 0.7235 -0.0019
vn -0.3147 0.2656 0.9113
vn 0.5165 -0.2765 0.8104
vn 0.2817 -0.2944 0.9132
vn 0.9678 -0.2514 0.0130
vn 0.5332 -0.2626 -0.8042
vn 0.2808 -0.2849 -0.9165
vn -0.5465 0.5350 -0.6442
vn -0.3297 0.2612 -0.9072
vn 0.0000 0.7473 0.6645
vn -0.0000 1.0000 -0.0002
vn 0.0000 0.3821 0.9241
vn 0.0000 -0.3818 0.9242
vn 0.3531 -0.8632 0.3609
vn 0.3786 -0.9256 0.0007
vn 0.0000 -1.0000 0.0008
vn 0.0000 -0.9239 0.3827
vn 0.3515 -0.8633 -0.3621
vn -0.0000 -0.9233 -0.3840
vn -0.0000 -0.3817 -0.9243
vn -0.0000 -0.3827 -0.9239
vn -0.0000 0.7472 -0.6646
vn 0.7114 -0.7028 0.0022
vn 0.5574 -0.5133 0.6526
vn 0.3210 -0.2370 0.9169
vn -0.2764 0.2611 0.9249
vn -0.5272 0.2183 0.8212
vn -0.3254 0.8699 0.3707
vn -0.3532 0.9355 -0.0015
vn -0.3287 0.8696 -0.3685
vn -0.5115 0.2326 -0.8272
vn -0.2789 0.2708 -0.9213
vn 0.3061 -0.2422 -0.9207
vn 0.5531 -0.5177 -0.6527
vn 0.9920 -0.1261 0.0022
vn 0.7395 -0.0875 0.6675
vn 0.4116 -0.0364 0.9106
vn -0.4044 0.0461 0.9134
vn -0.7149 0.0512 0.6974
vn -0.9988 0.0489 -0.0037
vn -0.9873 0.1581 -0.0128
vn -0.7178 0.0383 -0.6951
vn -0.4152 0.0358 -0.9090
vn 0.4098 -0.0278 -0.9118
vn 0.7415 -0.0797 -0.6662
vn 0.9739 0.2269 -0.0023
vn 0.7359 0.1608 0.6578
vn 0.4143 0.0773 0.9068
vn -0.4228 -0.0785 0.9028
vn -0.7187 -0.1110 0.6864
vn -0.9894 -0.1454 0.0051
vn -0.7155 -0.1215 -0.6880
vn -0.4113 -0.0858 -0.9075
vn 0.4173 0.0847 -0.9048
vn 0.7337 0.1666 -0.6587
vn 0.6904 0.7235 -0.0019
vn 0.5422 0.5392 0.6444
vn 0.3147 0.2656 0.9113
vn -0.2817 -0.2944 0.9132
vn -0.5165 -0.2765 0.8104
vn -0.9678 -0.2514 0.0130
vn -0.5332 -0.2626 -0.8042
vn -0.2808 -0.2849 -0.9165
vn 0.3297 0.2612 -0.9072
vn 0.5465 0.5350 -0.6442
vn -0.3531 -0.8632 0.3609
vn -0.3786 -0.9256 0.0007
vn -0.3515 -0.8633 -0.3621
# 230 vertex normals

vt 0.0000 0.5000 0.0000
vt 0.1250 0.5000 0.0000
vt 0.1250 0.6000 0.0000
vt 0.0000 0.6000 0.0000
vt 0.2500 0.5000 0.0000
vt 0.2500 0.6000 0.0000
vt 0.3750 0.5000 0.0000
vt 0.3750 0.6000 0.0000
vt 0.5000 0.5000 0.0000
vt 0.5000 0.6000 0.0000
vt 0.6250 0.5000 0.0000
vt 0.6250 0.6000 0.0000
vt 0.7500 0.5000 0.0000
vt 0.7500 0.6000 0.0000
vt 0.8750 0.5000 0.0000
vt 0.8750 0.6000 0.0000
vt 1.0000 0.5000 0.0000
vt 1.0000 0.6000 0.0000
vt 0.1250 0.7000 0.0000
vt 0.0000 0.7000 0.0000
vt 0.2500 0.7000 0.0000
vt 0.3750 0.7000 0.0000
vt 0.5000 0.7000 0.0000
vt 0.6250 0.7000 0.0000
vt 0.7500 0.7000 0.0000
vt 0.8750 0.7000 0.0000
vt 1.0000 0.7000 0.0000
vt 0.1250 0.8000 0.0000
vt 0.0000 0.8000 0.0000
vt 0.2500 0.8000 0.0000
vt 0.3750 0.8000 0.0000
vt 0.5000 0.8000 0.0000
vt 0.6250 0.8000 0.0000
vt 0.7500 0.8000 0.0000
vt 0.8750 0.8000 0.0000
vt 1.0000 0.8000 0.0000
vt 0.1250 0.9000 0.0000
vt 0.0000 0.9000 0.0000
vt 0.2500 0.9000 0.0000
vt 0.3750 0.9000 0.0000
vt 0.5000 0.9000 0.0000
vt 0.6250 0.9000 0.0000
vt 0.7500 0.9000 0.0000
vt 0.8750 0.9000 0.0000
vt 1.0000 0.9000 0.0000
vt 0.1250 1.0000 0.0000
vt 0.0000 1.0000 0.0000
vt 0.2500 1.0000 0.0000
vt 0.3750 1.0000 0.0000
vt 0.5000 1.0000 0.0000
vt 0.6250 1.0000 0.0000
vt 0.7500 1.0000 0.0000
vt 0.8750 1.0000 0.0000
vt 1.0000 1.0000 0.0000
# 54 texture coords

g Torus003
usemtl wire_154215229
s 1
f 1/1/1 2/2/2 3/3/3 4/4/4 
f 2/2/2 5/5/5 6/6/6 3/3/3 
s 2
f 5/5/7 7/7/8 8/8/9 6/6/10 
s 1
f 7/7/11 9/9/12 10/10/13 8/8/14 
f 9/9/12 11/11/15 12/12/16 10/10/13 
s 2
f 11/11/17 13/13/18 14/14/19 12/12/20 
s 1
f 13/13/21 15/15/22 16/16/23 14/14/24 
f 15/15/22 1/17/1 4/18/4 16/16/23 
f 4/4/4 3/3/3 17/19/25 18/20/26 
f 3/3/3 6/6/6 19/21/27 17/19/25 
s 2
f 6/6/10 8/8/9 20/22/28 19/21/29 
f 8/8/9 10/10/30 21/23/31 20/22/28 
f 10/10/30 12/12/20 22/24/32 21/23/31 
f 12/12/20 14/14/19 23/25/33 22/24/32 
s 1
f 14/14/24 16/16/23 24/26/34 23/25/35 
f 16/16/23 4/18/4 18/27/26 24/26/34 
f 18/20/26 17/19/25 25/28/36 26/29/37 
f 17/19/25 19/21/27 27/30/38 25/28/36 
s 2
f 19/21/29 20/22/28 28/31/39 27/30/40 
f 20/22/28 21/23/31 29/32/41 28/31/39 
f 21/23/31 22/24/32 30/33/42 29/32/41 
f 22/24/32 23/25/33 31/34/43 30/33/42 
s 1
f 23/25/35 24/26/34 32/35/44 31/34/45 
f 24/26/34 18/27/26 26/36/37 32/35/44 
f 26/29/37 25/28/36 33/37/46 34/38/47 
f 25/28/36 27/30/38 35/39/48 33/37/46 
s 2
f 27/30/40 28/31/39 36/40/49 35/39/50 
f 28/31/39 29/32/41 37/41/51 36/40/49 
f 29/32/41 30/33/42 38/42/52 37/41/51 
f 30/33/42 31/34/43 39/43/53 38/42/52 
s 1
f 31/34/45 32/35/44 40/44/54 39/43/55 
f 32/35/44 26/36/37 34/45/47 40/44/54 
f 34/38/47 33/37/46 41/46/56 42/47/57 
f 33/37/46 35/39/48 43/48/58 41/46/56 
s 2
f 35/39/50 36/40/49 44/49/59 43/48/60 
s 1
f 36/40/61 37/41/62 45/50/63 44/49/64 
f 37/41/62 38/42/65 46/51/66 45/50/63 
s 2
f 38/42/52 39/43/53 47/52/67 46/51/68 
s 1
f 39/43/55 40/44/54 48/53/69 47/52/70 
f 40/44/54 34/45/47 42/54/57 48/53/69 
f 1/1/1 49/4/71 50/3/72 2/2/2 
f 2/2/2 50/3/72 51/6/73 5/5/5 
s 2
f 5/5/7 51/6/74 52/8/75 7/7/8 
s 1
f 7/7/11 52/8/76 53/10/77 9/9/12 
f 9/9/12 53/10/77 54/12/78 11/11/15 
s 2
f 11/11/17 54/12/79 55/14/80 13/13/18 
s 1
f 13/13/21 55/14/81 56/16/82 15/15/22 
f 15/15/22 56/16/82 49/18/71 1/17/1 
f 49/4/71 57/20/83 58/19/84 50/3/72 
f 50/3/72 58/19/84 59/21/85 51/6/73 
s 2
f 51/6/74 59/21/86 60/22/87 52/8/75 
f 52/8/75 60/22/87 61/23/88 53/10/89 
f 53/10/89 61/23/88 62/24/90 54/12/79 
f 54/12/79 62/24/90 63/25/91 55/14/80 
s 1
f 55/14/81 63/25/92 64/26/93 56/16/82 
f 56/16/82 64/26/93 57/27/83 49/18/71 
f 57/20/83 65/29/94 66/28/95 58/19/84 
f 58/19/84 66/28/95 67/30/96 59/21/85 
s 2
f 59/21/86 67/30/97 68/31/98 60/22/87 
f 60/22/87 68/31/98 69/32/99 61/23/88 
f 61/23/88 69/32/99 70/33/100 62/24/90 
f 62/24/90 70/33/100 71/34/101 63/25/91 
s 1
f 63/25/92 71/34/102 72/35/103 64/26/93 
f 64/26/93 72/35/103 65/36/94 57/27/83 
f 65/29/94 73/38/104 74/37/105 66/28/95 
f 66/28/95 74/37/105 75/39/106 67/30/96 
s 2
f 67/30/97 75/39/107 76/40/108 68/31/98 
f 68/31/98 76/40/108 77/41/109 69/32/99 
f 69/32/99 77/41/109 78/42/110 70/33/100 
f 70/33/100 78/42/110 79/43/111 71/34/101 
s 1
f 71/34/102 79/43/112 80/44/113 72/35/103 
f 72/35/103 80/44/113 73/45/104 65/36/94 
f 73/38/104 42/47/57 41/46/56 74/37/105 
f 74/37/105 41/46/56 43/48/58 75/39/106 
s 2
f 75/39/107 43/48/60 44/49/59 76/40/108 
s 1
f 76/40/114 44/49/64 45/50/63 77/41/115 
f 77/41/115 45/50/63 46/51/66 78/42/116 
s 2
f 78/42/110 46/51/68 47/52/67 79/43/111 
s 1
f 79/43/112 47/52/70 48/53/69 80/44/113 
f 80/44/113 48/53/69 42/54/57 73/45/104 
f 81/1/117 82/2/118 83/3/119 84/4/120 
f 82/2/118 85/5/121 86/6/122 83/3/119 
s 2
f 85/5/123 87/7/124 88/8/125 86/6/126 
s 1
f 87/7/127 89/9/128 90/10/129 88/8/130 
f 89/9/128 91/11/131 92/12/132 90/10/129 
s 2
f 91/11/133 93/13/134 94/14/135 92/12/136 
s 1
f 93/13/137 95/15/138 96/16/139 94/14/140 
f 95/15/138 81/17/117 84/18/120 96/16/139 
f 84/4/120 83/3/119 97/19/141 98/20/142 
f 83/3/119 86/6/122 99/21/143 97/19/141 
s 2
f 86/6/126 88/8/125 100/22/144 99/21/145 
f 88/8/125 90/10/146 101/23/147 100/22/144 
f 90/10/146 92/12/136 102/24/148 101/23/147 
f 92/12/136 94/14/135 103/25/149 102/24/148 
s 1
f 94/14/140 96/16/139 104/26/150 103/25/151 
f 96/16/139 84/18/120 98/27/142 104/26/150 
f 98/20/142 97/19/141 105/28/152 106/29/153 
f 97/19/141 99/21/143 107/30/154 105/28/152 
s 2
f 99/21/145 100/22/144 108/31/155 107/30/156 
f 100/22/144 101/23/147 109/32/157 108/31/155 
f 101/23/147 102/24/148 110/33/158 109/32/157 
f 102/24/148 103/25/149 111/34/159 110/33/158 
s 1
f 103/25/151 104/26/150 112/35/160 111/34/161 
f 104/26/150 98/27/142 106/36/153 112/35/160 
f 106/29/153 105/28/152 113/37/162 114/38/163 
f 105/28/152 107/30/154 115/39/164 113/37/162 
s 2
f 107/30/156 108/31/155 116/40/165 115/39/166 
f 108/31/155 109/32/157 117/41/167 116/40/165 
f 109/32/157 110/33/158 118/42/168 117/41/167 
f 110/33/158 111/34/159 119/43/169 118/42/168 
s 1
f 111/34/161 112/35/160 120/44/170 119/43/171 
f 112/35/160 106/36/153 114/45/163 120/44/170 
f 114/38/163 113/37/162 121/46/172 122/47/173 
f 113/37/162 115/39/164 123/48/174 121/46/172 
s 2
f 115/39/166 116/40/165 124/49/175 123/48/121 
s 1
f 116/40/176 117/41/177 125/50/178 124/49/179 
f 117/41/177 118/42/180 126/51/181 125/50/178 
s 2
f 118/42/168 119/43/169 127/52/182 126/51/183 
s 1
f 119/43/171 120/44/170 128/53/184 127/52/134 
f 120/44/170 114/45/163 122/54/173 128/53/184 
f 81/1/117 129/4/185 130/3/186 82/2/118 
f 82/2/118 130/3/186 131/6/187 85/5/121 
s 2
f 85/5/123 131/6/188 132/8/189 87/7/124 
s 1
f 87/7/127 132/8/190 133/10/191 89/9/128 
f 89/9/128 133/10/191 134/12/192 91/11/131 
s 2
f 91/11/133 134/12/193 135/14/194 93/13/134 
s 1
f 93/13/137 135/14/195 136/16/196 95/15/138 
f 95/15/138 136/16/196 129/18/185 81/17/117 
f 129/4/185 137/20/197 138/19/198 130/3/186 
f 130/3/186 138/19/198 139/21/199 131/6/187 
s 2
f 131/6/188 139/21/200 140/22/201 132/8/189 
f 132/8/189 140/22/201 141/23/202 133/10/203 
f 133/10/203 141/23/202 142/24/204 134/12/193 
f 134/12/193 142/24/204 143/25/205 135/14/194 
s 1
f 135/14/195 143/25/206 144/26/207 136/16/196 
f 136/16/196 144/26/207 137/27/197 129/18/185 
f 137/20/197 145/29/208 146/28/209 138/19/198 
f 138/19/198 146/28/209 147/30/210 139/21/199 
s 2
f 139/21/200 147/30/211 148/31/212 140/22/201 
f 140/22/201 148/31/212 149/32/213 141/23/202 
f 141/23/202 149/32/213 150/33/214 142/24/204 
f 142/24/204 150/33/214 151/34/215 143/25/205 
s 1
f 143/25/206 151/34/216 152/35/217 144/26/207 
f 144/26/207 152/35/217 145/36/208 137/27/197 
f 145/29/208 153/38/218 154/37/219 146/28/209 
f 146/28/209 154/37/219 155/39/220 147/30/210 
s 2
f 147/30/211 155/39/221 156/40/222 148/31/212 
f 148/31/212 156/40/222 157/41/223 149/32/213 
f 149/32/213 157/41/223 158/42/224 150/33/214 
f 150/33/214 158/42/224 159/43/225 151/34/215 
s 1
f 151/34/216 159/43/226 160/44/227 152/35/217 
f 152/35/217 160/44/227 153/45/218 145/36/208 
f 153/38/218 122/47/173 121/46/172 154/37/219 
f 154/37/219 121/46/172 123/48/174 155/39/220 
s 2
f 155/39/221 123/48/121 124/49/175 156/40/222 
s 1
f 156/40/228 124/49/179 125/50/178 157/41/229 
f 157/41/229 125/50/178 126/51/181 158/42/230 
s 2
f 158/42/224 126/51/183 127/52/182 159/43/225 
s 1
f 159/43/226 127/52/134 128/53/184 160/44/227 
f 160/44/227 128/53/184 122/54/173 153/45/218 
# 160 polygons

