# 3ds Max Wavefront OBJ Exporter v0.97b - (c)2007 guruware
# File Created: 28.08.2018 21:56:27

mtllib SingleChain.mtl

#
# object Torus003
#

v  -0.0000 0.0000 -0.0000
v  -0.0000 0.0661 0.1596
v  -0.5696 0.2700 0.1596
v  -0.6084 0.2165 0.0000
v  -0.0000 0.2258 0.2258
v  -0.4757 0.3991 0.2258
v  -0.0000 0.3854 0.1596
v  -0.3819 0.5282 0.1596
v  -0.0000 0.4515 -0.0000
v  -0.3430 0.5817 0.0000
v  -0.0000 0.3854 -0.1596
v  -0.3819 0.5282 -0.1596
v  -0.0000 0.2258 -0.2258
v  -0.4757 0.3991 -0.2258
v  -0.0000 0.0661 -0.1596
v  -0.5696 0.2700 -0.1596
v  -0.7539 0.8939 0.1596
v  -0.8135 0.8735 0.0000
v  -0.6099 0.9432 0.2258
v  -0.4659 0.9926 0.1596
v  -0.4062 1.0130 0.0000
v  -0.4659 0.9926 -0.1596
v  -0.6099 0.9432 -0.2258
v  -0.7539 0.8939 -0.1596
v  -0.7084 1.6652 0.1596
v  -0.7644 1.6856 0.0000
v  -0.5731 1.6159 0.2258
v  -0.4378 1.5665 0.1596
v  -0.3817 1.5461 0.0000
v  -0.4378 1.5665 -0.1596
v  -0.5731 1.6159 -0.2258
v  -0.7084 1.6652 -0.1596
v  -0.4842 2.2247 0.1596
v  -0.5173 2.2782 0.0000
v  -0.4045 2.0955 0.2258
v  -0.3247 1.9664 0.1596
v  -0.2917 1.9129 0.0000
v  -0.3247 1.9664 -0.1596
v  -0.4045 2.0955 -0.2258
v  -0.4842 2.2247 -0.1596
v  -0.0000 2.4179 0.1596
v  -0.0000 2.4840 0.0000
v  -0.0000 2.2582 0.2258
v  -0.0000 2.0986 0.1596
v  -0.0000 2.0325 0.0000
v  -0.0000 2.0986 -0.1596
v  -0.0000 2.2582 -0.2258
v  -0.0000 2.4179 -0.1596
v  0.6084 0.2165 -0.0000
v  0.5696 0.2700 0.1596
v  0.4757 0.3991 0.2258
v  0.3819 0.5282 0.1596
v  0.3430 0.5817 -0.0000
v  0.3819 0.5282 -0.1596
v  0.4757 0.3991 -0.2258
v  0.5696 0.2700 -0.1596
v  0.8135 0.8735 -0.0000
v  0.7539 0.8939 0.1596
v  0.6099 0.9432 0.2258
v  0.4659 0.9926 0.1596
v  0.4062 1.0130 -0.0000
v  0.4659 0.9926 -0.1596
v  0.6099 0.9432 -0.2258
v  0.7539 0.8939 -0.1596
v  0.7644 1.6856 -0.0000
v  0.7084 1.6652 0.1596
v  0.5731 1.6159 0.2258
v  0.4378 1.5665 0.1596
v  0.3817 1.5461 -0.0000
v  0.4378 1.5665 -0.1596
v  0.5731 1.6159 -0.2258
v  0.7084 1.6652 -0.1596
v  0.5173 2.2782 -0.0000
v  0.4842 2.2247 0.1596
v  0.4045 2.0955 0.2258
v  0.3247 1.9664 0.1596
v  0.2917 1.9129 -0.0000
v  0.3247 1.9664 -0.1596
v  0.4045 2.0955 -0.2258
v  0.4842 2.2247 -0.1596
# 80 vertices

vn -0.0000 -1.0000 0.0005
vn 0.0000 -0.7437 0.6685
vn -0.5574 -0.5133 0.6526
vn -0.7114 -0.7028 0.0022
vn 0.0000 -0.3827 0.9239
vn -0.3210 -0.2370 0.9169
vn 0.0000 0.3806 0.9247
vn 0.0000 0.3827 0.9239
vn 0.5272 0.2183 0.8212
vn 0.2764 0.2611 0.9249
vn 0.0000 0.9227 0.3854
vn -0.0000 1.0000 -0.0017
vn 0.3532 0.9355 -0.0015
vn 0.3254 0.8699 0.3707
vn -0.0000 0.9239 -0.3827
vn 0.3287 0.8696 -0.3685
vn -0.0000 0.3810 -0.9246
vn -0.0000 0.3827 -0.9239
vn 0.2789 0.2708 -0.9213
vn 0.5115 0.2326 -0.8272
vn -0.0000 -0.3815 -0.9244
vn -0.0000 -0.7438 -0.6684
vn -0.5531 -0.5177 -0.6527
vn -0.3061 -0.2422 -0.9207
vn -0.7395 -0.0875 0.6675
vn -0.9920 -0.1261 0.0022
vn -0.4116 -0.0364 0.9106
vn 0.7149 0.0512 0.6974
vn 0.4044 0.0461 0.9134
vn 0.9873 0.1581 -0.0128
vn 0.9988 0.0489 -0.0037
vn 0.7178 0.0383 -0.6951
vn 0.4152 0.0358 -0.9090
vn -0.7415 -0.0797 -0.6662
vn -0.4098 -0.0278 -0.9118
vn -0.7358 0.1608 0.6578
vn -0.9739 0.2269 -0.0023
vn -0.4143 0.0773 0.9068
vn 0.7187 -0.1110 0.6864
vn 0.4228 -0.0785 0.9028
vn 0.9894 -0.1454 0.0051
vn 0.7155 -0.1215 -0.6880
vn 0.4113 -0.0858 -0.9075
vn -0.7337 0.1666 -0.6587
vn -0.4173 0.0847 -0.9048
vn -0.5422 0.5392 0.6444
vn -0.6904 0.7235 -0.0019
vn -0.3147 0.2656 0.9113
vn 0.5165 -0.2765 0.8104
vn 0.2817 -0.2944 0.9132
vn 0.9678 -0.2514 0.0130
vn 0.5332 -0.2626 -0.8042
vn 0.2808 -0.2849 -0.9165
vn -0.5465 0.5350 -0.6442
vn -0.3297 0.2612 -0.9072
vn 0.0000 0.7473 0.6645
vn 0.0000 1.0000 -0.0002
vn 0.0000 0.3821 0.9241
vn 0.0000 -0.3818 0.9242
vn 0.3531 -0.8632 0.3609
vn 0.3786 -0.9256 0.0007
vn 0.0000 -1.0000 0.0008
vn 0.0000 -0.9239 0.3827
vn 0.3515 -0.8633 -0.3621
vn -0.0000 -0.9233 -0.3840
vn -0.0000 -0.3817 -0.9243
vn -0.0000 -0.3827 -0.9239
vn -0.0000 0.7472 -0.6646
vn 0.7114 -0.7028 0.0022
vn 0.5574 -0.5133 0.6526
vn 0.3210 -0.2370 0.9169
vn -0.2764 0.2611 0.9249
vn -0.5272 0.2183 0.8212
vn -0.3254 0.8699 0.3707
vn -0.3532 0.9355 -0.0015
vn -0.3287 0.8696 -0.3685
vn -0.5115 0.2326 -0.8272
vn -0.2789 0.2708 -0.9213
vn 0.3061 -0.2422 -0.9207
vn 0.5531 -0.5177 -0.6527
vn 0.9920 -0.1261 0.0022
vn 0.7395 -0.0875 0.6675
vn 0.4116 -0.0364 0.9106
vn -0.4044 0.0461 0.9134
vn -0.7149 0.0512 0.6974
vn -0.9988 0.0489 -0.0037
vn -0.9873 0.1581 -0.0128
vn -0.7178 0.0383 -0.6951
vn -0.4152 0.0358 -0.9090
vn 0.4098 -0.0278 -0.9118
vn 0.7415 -0.0797 -0.6662
vn 0.9739 0.2269 -0.0023
vn 0.7359 0.1608 0.6578
vn 0.4143 0.0773 0.9068
vn -0.4228 -0.0785 0.9028
vn -0.7187 -0.1110 0.6864
vn -0.9894 -0.1454 0.0051
vn -0.7155 -0.1215 -0.6880
vn -0.4113 -0.0858 -0.9075
vn 0.4173 0.0847 -0.9048
vn 0.7337 0.1666 -0.6587
vn 0.6904 0.7235 -0.0019
vn 0.5422 0.5392 0.6444
vn 0.3147 0.2656 0.9113
vn -0.2817 -0.2944 0.9132
vn -0.5165 -0.2765 0.8104
vn -0.9678 -0.2514 0.0130
vn -0.5332 -0.2626 -0.8042
vn -0.2808 -0.2849 -0.9165
vn 0.3297 0.2612 -0.9072
vn 0.5465 0.5350 -0.6442
vn -0.3531 -0.8632 0.3609
vn -0.3786 -0.9256 0.0007
vn -0.3515 -0.8633 -0.3621
# 114 vertex normals

vt 0.0000 0.5000 0.0000
vt 0.1250 0.5000 0.0000
vt 0.1250 0.6000 0.0000
vt 0.0000 0.6000 0.0000
vt 0.2500 0.5000 0.0000
vt 0.2500 0.6000 0.0000
vt 0.3750 0.5000 0.0000
vt 0.3750 0.6000 0.0000
vt 0.5000 0.5000 0.0000
vt 0.5000 0.6000 0.0000
vt 0.6250 0.5000 0.0000
vt 0.6250 0.6000 0.0000
vt 0.7500 0.5000 0.0000
vt 0.7500 0.6000 0.0000
vt 0.8750 0.5000 0.0000
vt 0.8750 0.6000 0.0000
vt 1.0000 0.5000 0.0000
vt 1.0000 0.6000 0.0000
vt 0.1250 0.7000 0.0000
vt 0.0000 0.7000 0.0000
vt 0.2500 0.7000 0.0000
vt 0.3750 0.7000 0.0000
vt 0.5000 0.7000 0.0000
vt 0.6250 0.7000 0.0000
vt 0.7500 0.7000 0.0000
vt 0.8750 0.7000 0.0000
vt 1.0000 0.7000 0.0000
vt 0.1250 0.8000 0.0000
vt 0.0000 0.8000 0.0000
vt 0.2500 0.8000 0.0000
vt 0.3750 0.8000 0.0000
vt 0.5000 0.8000 0.0000
vt 0.6250 0.8000 0.0000
vt 0.7500 0.8000 0.0000
vt 0.8750 0.8000 0.0000
vt 1.0000 0.8000 0.0000
vt 0.1250 0.9000 0.0000
vt 0.0000 0.9000 0.0000
vt 0.2500 0.9000 0.0000
vt 0.3750 0.9000 0.0000
vt 0.5000 0.9000 0.0000
vt 0.6250 0.9000 0.0000
vt 0.7500 0.9000 0.0000
vt 0.8750 0.9000 0.0000
vt 1.0000 0.9000 0.0000
vt 0.1250 1.0000 0.0000
vt 0.0000 1.0000 0.0000
vt 0.2500 1.0000 0.0000
vt 0.3750 1.0000 0.0000
vt 0.5000 1.0000 0.0000
vt 0.6250 1.0000 0.0000
vt 0.7500 1.0000 0.0000
vt 0.8750 1.0000 0.0000
vt 1.0000 1.0000 0.0000
# 54 texture coords

g Torus003
usemtl wire_154215229
s 1
f 1/1/1 2/2/2 3/3/3 4/4/4 
f 2/2/2 5/5/5 6/6/6 3/3/3 
s 2
f 5/5/7 7/7/8 8/8/9 6/6/10 
s 1
f 7/7/11 9/9/12 10/10/13 8/8/14 
f 9/9/12 11/11/15 12/12/16 10/10/13 
s 2
f 11/11/17 13/13/18 14/14/19 12/12/20 
s 1
f 13/13/21 15/15/22 16/16/23 14/14/24 
f 15/15/22 1/17/1 4/18/4 16/16/23 
f 4/4/4 3/3/3 17/19/25 18/20/26 
f 3/3/3 6/6/6 19/21/27 17/19/25 
s 2
f 6/6/10 8/8/9 20/22/28 19/21/29 
f 8/8/9 10/10/30 21/23/31 20/22/28 
f 10/10/30 12/12/20 22/24/32 21/23/31 
f 12/12/20 14/14/19 23/25/33 22/24/32 
s 1
f 14/14/24 16/16/23 24/26/34 23/25/35 
f 16/16/23 4/18/4 18/27/26 24/26/34 
f 18/20/26 17/19/25 25/28/36 26/29/37 
f 17/19/25 19/21/27 27/30/38 25/28/36 
s 2
f 19/21/29 20/22/28 28/31/39 27/30/40 
f 20/22/28 21/23/31 29/32/41 28/31/39 
f 21/23/31 22/24/32 30/33/42 29/32/41 
f 22/24/32 23/25/33 31/34/43 30/33/42 
s 1
f 23/25/35 24/26/34 32/35/44 31/34/45 
f 24/26/34 18/27/26 26/36/37 32/35/44 
f 26/29/37 25/28/36 33/37/46 34/38/47 
f 25/28/36 27/30/38 35/39/48 33/37/46 
s 2
f 27/30/40 28/31/39 36/40/49 35/39/50 
f 28/31/39 29/32/41 37/41/51 36/40/49 
f 29/32/41 30/33/42 38/42/52 37/41/51 
f 30/33/42 31/34/43 39/43/53 38/42/52 
s 1
f 31/34/45 32/35/44 40/44/54 39/43/55 
f 32/35/44 26/36/37 34/45/47 40/44/54 
f 34/38/47 33/37/46 41/46/56 42/47/57 
f 33/37/46 35/39/48 43/48/58 41/46/56 
s 2
f 35/39/50 36/40/49 44/49/59 43/48/5 
s 1
f 36/40/60 37/41/61 45/50/62 44/49/63 
f 37/41/61 38/42/64 46/51/65 45/50/62 
s 2
f 38/42/52 39/43/53 47/52/66 46/51/67 
s 1
f 39/43/55 40/44/54 48/53/68 47/52/18 
f 40/44/54 34/45/47 42/54/57 48/53/68 
f 1/1/1 49/4/69 50/3/70 2/2/2 
f 2/2/2 50/3/70 51/6/71 5/5/5 
s 2
f 5/5/7 51/6/72 52/8/73 7/7/8 
s 1
f 7/7/11 52/8/74 53/10/75 9/9/12 
f 9/9/12 53/10/75 54/12/76 11/11/15 
s 2
f 11/11/17 54/12/77 55/14/78 13/13/18 
s 1
f 13/13/21 55/14/79 56/16/80 15/15/22 
f 15/15/22 56/16/80 49/18/69 1/17/1 
f 49/4/69 57/20/81 58/19/82 50/3/70 
f 50/3/70 58/19/82 59/21/83 51/6/71 
s 2
f 51/6/72 59/21/84 60/22/85 52/8/73 
f 52/8/73 60/22/85 61/23/86 53/10/87 
f 53/10/87 61/23/86 62/24/88 54/12/77 
f 54/12/77 62/24/88 63/25/89 55/14/78 
s 1
f 55/14/79 63/25/90 64/26/91 56/16/80 
f 56/16/80 64/26/91 57/27/81 49/18/69 
f 57/20/81 65/29/92 66/28/93 58/19/82 
f 58/19/82 66/28/93 67/30/94 59/21/83 
s 2
f 59/21/84 67/30/95 68/31/96 60/22/85 
f 60/22/85 68/31/96 69/32/97 61/23/86 
f 61/23/86 69/32/97 70/33/98 62/24/88 
f 62/24/88 70/33/98 71/34/99 63/25/89 
s 1
f 63/25/90 71/34/100 72/35/101 64/26/91 
f 64/26/91 72/35/101 65/36/92 57/27/81 
f 65/29/92 73/38/102 74/37/103 66/28/93 
f 66/28/93 74/37/103 75/39/104 67/30/94 
s 2
f 67/30/95 75/39/105 76/40/106 68/31/96 
f 68/31/96 76/40/106 77/41/107 69/32/97 
f 69/32/97 77/41/107 78/42/108 70/33/98 
f 70/33/98 78/42/108 79/43/109 71/34/99 
s 1
f 71/34/100 79/43/110 80/44/111 72/35/101 
f 72/35/101 80/44/111 73/45/102 65/36/92 
f 73/38/102 42/47/57 41/46/56 74/37/103 
f 74/37/103 41/46/56 43/48/58 75/39/104 
s 2
f 75/39/105 43/48/5 44/49/59 76/40/106 
s 1
f 76/40/112 44/49/63 45/50/62 77/41/113 
f 77/41/113 45/50/62 46/51/65 78/42/114 
s 2
f 78/42/108 46/51/67 47/52/66 79/43/109 
s 1
f 79/43/110 47/52/18 48/53/68 80/44/111 
f 80/44/111 48/53/68 42/54/57 73/45/102 
# 80 polygons

